<svg width="270" height="246" viewBox="0 0 270 246" fill="none" xmlns="http://www.w3.org/2000/svg">
<mask id="mask0" mask-type="alpha" maskUnits="userSpaceOnUse" x="0" y="0" width="270" height="246">
<rect width="270" height="246" fill="#C4C4C4"/>
</mask>
<g mask="url(#mask0)">
<g filter="url(#filter0_d)">
<rect y="22" width="270" height="558" rx="36" fill="#E8DFE0"/>
<path d="M9 66C9 46.1177 25.1178 30 45 30H225C244.882 30 261 46.1177 261 66V533C261 552.882 244.882 569 225 569H45C25.1177 569 9 552.882 9 533V66Z" fill="#FF3B3D"/>
<path d="M82.8959 50.497C70.3344 49.586 68.4706 36.4528 69.1089 30H202C202 46.7013 192.426 50.244 188.596 50.497C158.597 50.8766 95.4573 51.408 82.8959 50.497Z" fill="#0E0A19"/>
<circle cx="171" cy="40" r="4" fill="white"/>
<path d="M40 215L51.8125 210L63.625 215L75.4375 210L87.25 215L99.0625 210L110.875 215L122.688 210L134.5 215L146.312 210L158.125 215L169.938 210L181.75 215L193.562 210L205.375 215L217.188 210L229 215V275H40V215Z" fill="url(#paint0_radial)"/>
<path d="M40 229H229" stroke="#E8DFE0" stroke-width="0.2"/>
</g>
</g>
<path d="M151 151C154.667 153.264 164.2 156.433 173 151" stroke="white" stroke-width="8"/>
<path d="M40.968 110V93.248H48.504C49.272 93.248 49.96 93.376 50.568 93.632C51.192 93.872 51.72 94.224 52.152 94.688C52.584 95.136 52.912 95.68 53.136 96.32C53.36 96.96 53.472 97.664 53.472 98.432C53.472 99.216 53.36 99.928 53.136 100.568C52.912 101.192 52.584 101.736 52.152 102.2C51.72 102.648 51.192 103 50.568 103.256C49.96 103.496 49.272 103.616 48.504 103.616H44.136V110H40.968ZM44.136 100.88H48.216C48.824 100.88 49.304 100.72 49.656 100.4C50.008 100.064 50.184 99.592 50.184 98.984V97.88C50.184 97.272 50.008 96.808 49.656 96.488C49.304 96.168 48.824 96.008 48.216 96.008H44.136V100.88ZM65.0389 110C64.3669 110 63.8309 109.808 63.4309 109.424C63.0469 109.024 62.8069 108.496 62.7109 107.84H62.5669C62.3589 108.656 61.9349 109.272 61.2949 109.688C60.6549 110.088 59.8629 110.288 58.9189 110.288C57.6389 110.288 56.6549 109.952 55.9669 109.28C55.2789 108.608 54.9349 107.712 54.9349 106.592C54.9349 105.296 55.3989 104.336 56.3269 103.712C57.2549 103.072 58.5749 102.752 60.2869 102.752H62.4229V101.84C62.4229 101.136 62.2389 100.592 61.8709 100.208C61.5029 99.824 60.9109 99.632 60.0949 99.632C59.3749 99.632 58.7909 99.792 58.3429 100.112C57.9109 100.416 57.5429 100.784 57.2389 101.216L55.4149 99.584C55.8789 98.864 56.4949 98.288 57.2629 97.856C58.0309 97.408 59.0469 97.184 60.3109 97.184C62.0069 97.184 63.2949 97.568 64.1749 98.336C65.0549 99.104 65.4949 100.208 65.4949 101.648V107.552H66.7429V110H65.0389ZM59.9509 108.056C60.6389 108.056 61.2229 107.904 61.7029 107.6C62.1829 107.296 62.4229 106.848 62.4229 106.256V104.6H60.4549C58.8549 104.6 58.0549 105.112 58.0549 106.136V106.544C58.0549 107.056 58.2149 107.44 58.5349 107.696C58.8709 107.936 59.3429 108.056 59.9509 108.056ZM74.1731 110.288C73.2451 110.288 72.4211 110.136 71.7011 109.832C70.9811 109.528 70.3731 109.088 69.8771 108.512C69.3971 107.936 69.0291 107.248 68.7731 106.448C68.5171 105.632 68.3891 104.72 68.3891 103.712C68.3891 102.704 68.5171 101.8 68.7731 101C69.0291 100.2 69.3971 99.52 69.8771 98.96C70.3731 98.384 70.9811 97.944 71.7011 97.64C72.4211 97.336 73.2451 97.184 74.1731 97.184C75.4371 97.184 76.4771 97.464 77.2931 98.024C78.1251 98.584 78.7251 99.36 79.0931 100.352L76.5731 101.48C76.4291 100.952 76.1571 100.52 75.7571 100.184C75.3731 99.832 74.8451 99.656 74.1731 99.656C73.3091 99.656 72.6611 99.928 72.2291 100.472C71.8131 101.016 71.6051 101.728 71.6051 102.608V104.888C71.6051 105.768 71.8131 106.48 72.2291 107.024C72.6611 107.552 73.3091 107.816 74.1731 107.816C74.9091 107.816 75.4771 107.632 75.8771 107.264C76.2771 106.88 76.5891 106.408 76.8131 105.848L79.1651 106.976C78.7491 108.08 78.1171 108.912 77.2691 109.472C76.4211 110.016 75.3891 110.288 74.1731 110.288ZM88.5178 104.552H88.3978C88.0778 105.032 87.6458 105.424 87.1018 105.728C86.5578 106.016 85.8618 106.16 85.0138 106.16C82.3098 106.16 80.9578 104.728 80.9578 101.864V97.472H84.0298V101.696C84.0298 102.368 84.1978 102.856 84.5338 103.16C84.8698 103.464 85.4058 103.616 86.1418 103.616C86.8938 103.616 87.4778 103.496 87.8938 103.256C88.3098 103.016 88.5178 102.688 88.5178 102.272V97.472H91.5898V110H88.5178V104.552ZM100.215 110.288C99.287 110.288 98.455 110.136 97.719 109.832C96.999 109.512 96.383 109.072 95.871 108.512C95.375 107.936 94.991 107.248 94.719 106.448C94.447 105.632 94.311 104.72 94.311 103.712C94.311 102.72 94.439 101.824 94.695 101.024C94.967 100.224 95.351 99.544 95.847 98.984C96.343 98.408 96.951 97.968 97.671 97.664C98.391 97.344 99.207 97.184 100.119 97.184C101.095 97.184 101.943 97.352 102.663 97.688C103.383 98.024 103.975 98.48 104.439 99.056C104.903 99.632 105.247 100.304 105.471 101.072C105.711 101.824 105.831 102.632 105.831 103.496V104.504H97.503V104.816C97.503 105.728 97.759 106.464 98.271 107.024C98.783 107.568 99.543 107.84 100.551 107.84C101.319 107.84 101.943 107.68 102.423 107.36C102.919 107.04 103.359 106.632 103.743 106.136L105.399 107.984C104.887 108.704 104.183 109.272 103.287 109.688C102.407 110.088 101.383 110.288 100.215 110.288ZM100.167 99.488C99.351 99.488 98.703 99.76 98.223 100.304C97.743 100.848 97.503 101.552 97.503 102.416V102.608H102.639V102.392C102.639 101.528 102.423 100.832 101.991 100.304C101.575 99.76 100.967 99.488 100.167 99.488ZM110.89 99.92H107.074V97.472H117.778V99.92H113.962V110H110.89V99.92ZM40.776 122.472H47.664C48.784 122.472 49.64 122.76 50.232 123.336C50.824 123.896 51.12 124.656 51.12 125.616C51.12 127.2 50.256 128.112 48.528 128.352V128.448C49.552 128.544 50.32 128.84 50.832 129.336C51.344 129.832 51.6 130.496 51.6 131.328C51.6 132.416 51.264 133.304 50.592 133.992C49.92 134.664 48.984 135 47.784 135H40.776V122.472ZM47.16 132.768C47.576 132.768 47.896 132.664 48.12 132.456C48.344 132.232 48.456 131.92 48.456 131.52V130.848C48.456 130.448 48.344 130.144 48.12 129.936C47.896 129.712 47.576 129.6 47.16 129.6H43.776V132.768H47.16ZM46.8 127.656C47.168 127.656 47.456 127.552 47.664 127.344C47.888 127.136 48 126.848 48 126.48V125.88C48 125.512 47.888 125.224 47.664 125.016C47.456 124.808 47.168 124.704 46.8 124.704H43.776V127.656H46.8ZM63.6795 135C63.0075 135 62.4715 134.808 62.0715 134.424C61.6875 134.024 61.4475 133.496 61.3515 132.84H61.2075C60.9995 133.656 60.5755 134.272 59.9355 134.688C59.2955 135.088 58.5035 135.288 57.5595 135.288C56.2795 135.288 55.2955 134.952 54.6075 134.28C53.9195 133.608 53.5755 132.712 53.5755 131.592C53.5755 130.296 54.0395 129.336 54.9675 128.712C55.8955 128.072 57.2155 127.752 58.9275 127.752H61.0635V126.84C61.0635 126.136 60.8795 125.592 60.5115 125.208C60.1435 124.824 59.5515 124.632 58.7355 124.632C58.0155 124.632 57.4315 124.792 56.9835 125.112C56.5515 125.416 56.1835 125.784 55.8795 126.216L54.0555 124.584C54.5195 123.864 55.1355 123.288 55.9035 122.856C56.6715 122.408 57.6875 122.184 58.9515 122.184C60.6475 122.184 61.9355 122.568 62.8155 123.336C63.6955 124.104 64.1355 125.208 64.1355 126.648V132.552H65.3835V135H63.6795ZM58.5915 133.056C59.2795 133.056 59.8635 132.904 60.3435 132.6C60.8235 132.296 61.0635 131.848 61.0635 131.256V129.6H59.0955C57.4955 129.6 56.6955 130.112 56.6955 131.136V131.544C56.6955 132.056 56.8555 132.44 57.1755 132.696C57.5115 132.936 57.9835 133.056 58.5915 133.056ZM67.8698 122.472H70.9418V132.552H74.5178V122.472H77.5898V132.552H81.1658V122.472H84.2378V135H67.8698V122.472ZM92.8556 135.288C91.9276 135.288 91.0956 135.136 90.3596 134.832C89.6396 134.512 89.0236 134.072 88.5116 133.512C88.0156 132.936 87.6316 132.248 87.3596 131.448C87.0876 130.632 86.9516 129.72 86.9516 128.712C86.9516 127.72 87.0796 126.824 87.3356 126.024C87.6076 125.224 87.9916 124.544 88.4876 123.984C88.9836 123.408 89.5916 122.968 90.3116 122.664C91.0316 122.344 91.8476 122.184 92.7596 122.184C93.7356 122.184 94.5836 122.352 95.3036 122.688C96.0236 123.024 96.6156 123.48 97.0796 124.056C97.5436 124.632 97.8876 125.304 98.1116 126.072C98.3516 126.824 98.4716 127.632 98.4716 128.496V129.504H90.1436V129.816C90.1436 130.728 90.3996 131.464 90.9116 132.024C91.4236 132.568 92.1836 132.84 93.1916 132.84C93.9596 132.84 94.5836 132.68 95.0636 132.36C95.5596 132.04 95.9996 131.632 96.3836 131.136L98.0396 132.984C97.5276 133.704 96.8236 134.272 95.9276 134.688C95.0476 135.088 94.0236 135.288 92.8556 135.288ZM92.8076 124.488C91.9916 124.488 91.3436 124.76 90.8636 125.304C90.3836 125.848 90.1436 126.552 90.1436 127.416V127.608H95.2796V127.392C95.2796 126.528 95.0636 125.832 94.6316 125.304C94.2156 124.76 93.6076 124.488 92.8076 124.488ZM101.174 122.472H104.174V128.064L103.91 130.992H104.006L105.47 128.328L109.382 122.472H112.142V135H109.142V129.408L109.406 126.456H109.31L107.846 129.144L103.934 135H101.174V122.472ZM106.67 120.984C105.662 120.984 104.854 120.776 104.246 120.36C103.638 119.928 103.158 119.32 102.806 118.536L102.302 117.408L104.75 116.448L105.542 118.752C105.67 118.8 105.838 118.84 106.046 118.872C106.254 118.888 106.462 118.896 106.67 118.896C106.878 118.896 107.086 118.888 107.294 118.872C107.502 118.84 107.67 118.8 107.798 118.752L108.59 116.448L111.038 117.408L110.534 118.536C110.182 119.32 109.702 119.928 109.094 120.36C108.486 120.776 107.678 120.984 106.67 120.984ZM40.776 147.472H43.848V152.392H45.864L47.76 149.104C48.112 148.496 48.472 148.072 48.84 147.832C49.208 147.592 49.696 147.472 50.304 147.472H51.672V149.92H50.328L49.008 152.224C48.784 152.64 48.568 152.936 48.36 153.112C48.152 153.272 47.904 153.392 47.616 153.472V153.592C47.904 153.656 48.16 153.768 48.384 153.928C48.624 154.088 48.856 154.368 49.08 154.768L50.64 157.552H51.96V160H50.4C49.792 160 49.288 159.872 48.888 159.616C48.504 159.36 48.136 158.92 47.784 158.296L45.864 154.816H43.848V160H40.776V147.472ZM59.3378 160.288C58.4418 160.288 57.6338 160.136 56.9138 159.832C56.2098 159.528 55.6018 159.088 55.0898 158.512C54.5938 157.936 54.2098 157.248 53.9378 156.448C53.6658 155.632 53.5298 154.72 53.5298 153.712C53.5298 152.704 53.6658 151.8 53.9378 151C54.2098 150.2 54.5938 149.52 55.0898 148.96C55.6018 148.384 56.2098 147.944 56.9138 147.64C57.6338 147.336 58.4418 147.184 59.3378 147.184C60.2338 147.184 61.0418 147.336 61.7618 147.64C62.4818 147.944 63.0898 148.384 63.5858 148.96C64.0978 149.52 64.4898 150.2 64.7618 151C65.0338 151.8 65.1698 152.704 65.1698 153.712C65.1698 154.72 65.0338 155.632 64.7618 156.448C64.4898 157.248 64.0978 157.936 63.5858 158.512C63.0898 159.088 62.4818 159.528 61.7618 159.832C61.0418 160.136 60.2338 160.288 59.3378 160.288ZM59.3378 157.816C60.1538 157.816 60.7938 157.568 61.2578 157.072C61.7218 156.576 61.9538 155.848 61.9538 154.888V152.56C61.9538 151.616 61.7218 150.896 61.2578 150.4C60.7938 149.904 60.1538 149.656 59.3378 149.656C58.5378 149.656 57.9058 149.904 57.4418 150.4C56.9778 150.896 56.7458 151.616 56.7458 152.56V154.888C56.7458 155.848 56.9778 156.576 57.4418 157.072C57.9058 157.568 58.5378 157.816 59.3378 157.816ZM67.8932 147.472H71.4212L74.7332 152.992H74.8292L78.0932 147.472H81.5252V160H78.5492V151.264H78.4532L77.5892 152.896L74.7092 157.648L71.8292 152.896L70.9652 151.264H70.8692V160H67.8932V147.472ZM85.0729 147.472H88.1449V152.392H92.9689V147.472H96.0409V160H92.9689V154.84H88.1449V160H85.0729V147.472ZM108.82 160C108.148 160 107.612 159.808 107.212 159.424C106.828 159.024 106.588 158.496 106.492 157.84H106.348C106.14 158.656 105.716 159.272 105.076 159.688C104.436 160.088 103.644 160.288 102.7 160.288C101.42 160.288 100.436 159.952 99.7481 159.28C99.0601 158.608 98.7161 157.712 98.7161 156.592C98.7161 155.296 99.1801 154.336 100.108 153.712C101.036 153.072 102.356 152.752 104.068 152.752H106.204V151.84C106.204 151.136 106.02 150.592 105.652 150.208C105.284 149.824 104.692 149.632 103.876 149.632C103.156 149.632 102.572 149.792 102.124 150.112C101.692 150.416 101.324 150.784 101.02 151.216L99.1961 149.584C99.6601 148.864 100.276 148.288 101.044 147.856C101.812 147.408 102.828 147.184 104.092 147.184C105.788 147.184 107.076 147.568 107.956 148.336C108.836 149.104 109.276 150.208 109.276 151.648V157.552H110.524V160H108.82ZM103.732 158.056C104.42 158.056 105.004 157.904 105.484 157.6C105.964 157.296 106.204 156.848 106.204 156.256V154.6H104.236C102.636 154.6 101.836 155.112 101.836 156.136V156.544C101.836 157.056 101.996 157.44 102.316 157.696C102.652 157.936 103.124 158.056 103.732 158.056ZM115.109 149.92H111.293V147.472H121.997V149.92H118.181V160H115.109V149.92ZM124.26 147.472H127.332V151.432H130.452C131.06 151.432 131.62 151.528 132.132 151.72C132.66 151.912 133.108 152.192 133.476 152.56C133.86 152.912 134.156 153.352 134.364 153.88C134.588 154.408 134.7 155.016 134.7 155.704C134.7 156.392 134.596 157.008 134.388 157.552C134.18 158.08 133.884 158.528 133.5 158.896C133.132 159.248 132.684 159.52 132.156 159.712C131.644 159.904 131.076 160 130.452 160H124.26V147.472ZM129.828 157.72C130.372 157.72 130.796 157.592 131.1 157.336C131.42 157.08 131.58 156.696 131.58 156.184V155.248C131.58 154.736 131.42 154.352 131.1 154.096C130.796 153.84 130.372 153.712 129.828 153.712H127.332V157.72H129.828ZM136.452 147.472H139.524V160H136.452V147.472Z" fill="white"/>
<defs>
<filter id="filter0_d" x="-40" y="22" width="350" height="638" filterUnits="userSpaceOnUse" color-interpolation-filters="sRGB">
<feFlood flood-opacity="0" result="BackgroundImageFix"/>
<feColorMatrix in="SourceAlpha" type="matrix" values="0 0 0 0 0 0 0 0 0 0 0 0 0 0 0 0 0 0 127 0" result="hardAlpha"/>
<feOffset dy="40"/>
<feGaussianBlur stdDeviation="20"/>
<feColorMatrix type="matrix" values="0 0 0 0 0.493457 0 0 0 0 0.534313 0 0 0 0 0.679167 0 0 0 0.25 0"/>
<feBlend mode="normal" in2="BackgroundImageFix" result="effect1_dropShadow"/>
<feBlend mode="normal" in="SourceGraphic" in2="effect1_dropShadow" result="shape"/>
</filter>
<radialGradient id="paint0_radial" cx="0" cy="0" r="1" gradientUnits="userSpaceOnUse" gradientTransform="translate(134.5 245) rotate(90) scale(30 94.5)">
<stop stop-color="white"/>
<stop offset="1" stop-color="#F7F1F1"/>
</radialGradient>
</defs>
</svg>
