<svg width="270" height="260" viewBox="0 0 270 260" fill="none" xmlns="http://www.w3.org/2000/svg">
<mask id="mask0" mask-type="alpha" maskUnits="userSpaceOnUse" x="0" y="0" width="270" height="260">
<rect width="270" height="260" fill="#C4C4C4"/>
</mask>
<g mask="url(#mask0)">
<g filter="url(#filter0_d)">
<rect width="270" height="558" rx="36" fill="#E8DFE0"/>
<path d="M9 44C9 24.1177 25.1178 8 45 8H225C244.882 8 261 24.1177 261 44V511C261 530.882 244.882 547 225 547H45C25.1177 547 9 530.882 9 511V44Z" fill="#FF3B3D"/>
<path d="M82.8959 28.497C70.3344 27.586 68.4706 14.4528 69.1089 8H202C202 24.7013 192.426 28.244 188.596 28.497C158.597 28.8766 95.4573 29.408 82.8959 28.497Z" fill="#0E0A19"/>
<circle cx="171" cy="18" r="4" fill="white"/>
<path d="M40 186.769L51.8125 180L63.625 186.769L75.4375 180L87.25 186.769L99.0625 180L110.875 186.769L122.688 180L134.5 186.769L146.312 180L158.125 186.769L169.938 180L181.75 186.769L193.562 180L205.375 186.769L217.188 180L229 186.769V268H40V186.769Z" fill="url(#paint0_radial)"/>
<path d="M40 197H229" stroke="#E8DFE0" stroke-width="0.2"/>
</g>
<path d="M151 128C154.667 130.264 164.2 133.433 173 128" stroke="white" stroke-width="8"/>
<path d="M40.968 87V70.248H48.504C49.272 70.248 49.96 70.376 50.568 70.632C51.192 70.872 51.72 71.224 52.152 71.688C52.584 72.136 52.912 72.68 53.136 73.32C53.36 73.96 53.472 74.664 53.472 75.432C53.472 76.216 53.36 76.928 53.136 77.568C52.912 78.192 52.584 78.736 52.152 79.2C51.72 79.648 51.192 80 50.568 80.256C49.96 80.496 49.272 80.616 48.504 80.616H44.136V87H40.968ZM44.136 77.88H48.216C48.824 77.88 49.304 77.72 49.656 77.4C50.008 77.064 50.184 76.592 50.184 75.984V74.88C50.184 74.272 50.008 73.808 49.656 73.488C49.304 73.168 48.824 73.008 48.216 73.008H44.136V77.88ZM65.0389 87C64.3669 87 63.8309 86.808 63.4309 86.424C63.0469 86.024 62.8069 85.496 62.7109 84.84H62.5669C62.3589 85.656 61.9349 86.272 61.2949 86.688C60.6549 87.088 59.8629 87.288 58.9189 87.288C57.6389 87.288 56.6549 86.952 55.9669 86.28C55.2789 85.608 54.9349 84.712 54.9349 83.592C54.9349 82.296 55.3989 81.336 56.3269 80.712C57.2549 80.072 58.5749 79.752 60.2869 79.752H62.4229V78.84C62.4229 78.136 62.2389 77.592 61.8709 77.208C61.5029 76.824 60.9109 76.632 60.0949 76.632C59.3749 76.632 58.7909 76.792 58.3429 77.112C57.9109 77.416 57.5429 77.784 57.2389 78.216L55.4149 76.584C55.8789 75.864 56.4949 75.288 57.2629 74.856C58.0309 74.408 59.0469 74.184 60.3109 74.184C62.0069 74.184 63.2949 74.568 64.1749 75.336C65.0549 76.104 65.4949 77.208 65.4949 78.648V84.552H66.7429V87H65.0389ZM59.9509 85.056C60.6389 85.056 61.2229 84.904 61.7029 84.6C62.1829 84.296 62.4229 83.848 62.4229 83.256V81.6H60.4549C58.8549 81.6 58.0549 82.112 58.0549 83.136V83.544C58.0549 84.056 58.2149 84.44 58.5349 84.696C58.8709 84.936 59.3429 85.056 59.9509 85.056ZM74.1731 87.288C73.2451 87.288 72.4211 87.136 71.7011 86.832C70.9811 86.528 70.3731 86.088 69.8771 85.512C69.3971 84.936 69.0291 84.248 68.7731 83.448C68.5171 82.632 68.3891 81.72 68.3891 80.712C68.3891 79.704 68.5171 78.8 68.7731 78C69.0291 77.2 69.3971 76.52 69.8771 75.96C70.3731 75.384 70.9811 74.944 71.7011 74.64C72.4211 74.336 73.2451 74.184 74.1731 74.184C75.4371 74.184 76.4771 74.464 77.2931 75.024C78.1251 75.584 78.7251 76.36 79.0931 77.352L76.5731 78.48C76.4291 77.952 76.1571 77.52 75.7571 77.184C75.3731 76.832 74.8451 76.656 74.1731 76.656C73.3091 76.656 72.6611 76.928 72.2291 77.472C71.8131 78.016 71.6051 78.728 71.6051 79.608V81.888C71.6051 82.768 71.8131 83.48 72.2291 84.024C72.6611 84.552 73.3091 84.816 74.1731 84.816C74.9091 84.816 75.4771 84.632 75.8771 84.264C76.2771 83.88 76.5891 83.408 76.8131 82.848L79.1651 83.976C78.7491 85.08 78.1171 85.912 77.2691 86.472C76.4211 87.016 75.3891 87.288 74.1731 87.288ZM88.5178 81.552H88.3978C88.0778 82.032 87.6458 82.424 87.1018 82.728C86.5578 83.016 85.8618 83.16 85.0138 83.16C82.3098 83.16 80.9578 81.728 80.9578 78.864V74.472H84.0298V78.696C84.0298 79.368 84.1978 79.856 84.5338 80.16C84.8698 80.464 85.4058 80.616 86.1418 80.616C86.8938 80.616 87.4778 80.496 87.8938 80.256C88.3098 80.016 88.5178 79.688 88.5178 79.272V74.472H91.5898V87H88.5178V81.552ZM100.215 87.288C99.287 87.288 98.455 87.136 97.719 86.832C96.999 86.512 96.383 86.072 95.871 85.512C95.375 84.936 94.991 84.248 94.719 83.448C94.447 82.632 94.311 81.72 94.311 80.712C94.311 79.72 94.439 78.824 94.695 78.024C94.967 77.224 95.351 76.544 95.847 75.984C96.343 75.408 96.951 74.968 97.671 74.664C98.391 74.344 99.207 74.184 100.119 74.184C101.095 74.184 101.943 74.352 102.663 74.688C103.383 75.024 103.975 75.48 104.439 76.056C104.903 76.632 105.247 77.304 105.471 78.072C105.711 78.824 105.831 79.632 105.831 80.496V81.504H97.503V81.816C97.503 82.728 97.759 83.464 98.271 84.024C98.783 84.568 99.543 84.84 100.551 84.84C101.319 84.84 101.943 84.68 102.423 84.36C102.919 84.04 103.359 83.632 103.743 83.136L105.399 84.984C104.887 85.704 104.183 86.272 103.287 86.688C102.407 87.088 101.383 87.288 100.215 87.288ZM100.167 76.488C99.351 76.488 98.703 76.76 98.223 77.304C97.743 77.848 97.503 78.552 97.503 79.416V79.608H102.639V79.392C102.639 78.528 102.423 77.832 101.991 77.304C101.575 76.76 100.967 76.488 100.167 76.488ZM110.89 76.92H107.074V74.472H117.778V76.92H113.962V87H110.89V76.92ZM40.776 99.472H47.664C48.784 99.472 49.64 99.76 50.232 100.336C50.824 100.896 51.12 101.656 51.12 102.616C51.12 104.2 50.256 105.112 48.528 105.352V105.448C49.552 105.544 50.32 105.84 50.832 106.336C51.344 106.832 51.6 107.496 51.6 108.328C51.6 109.416 51.264 110.304 50.592 110.992C49.92 111.664 48.984 112 47.784 112H40.776V99.472ZM47.16 109.768C47.576 109.768 47.896 109.664 48.12 109.456C48.344 109.232 48.456 108.92 48.456 108.52V107.848C48.456 107.448 48.344 107.144 48.12 106.936C47.896 106.712 47.576 106.6 47.16 106.6H43.776V109.768H47.16ZM46.8 104.656C47.168 104.656 47.456 104.552 47.664 104.344C47.888 104.136 48 103.848 48 103.48V102.88C48 102.512 47.888 102.224 47.664 102.016C47.456 101.808 47.168 101.704 46.8 101.704H43.776V104.656H46.8ZM63.6795 112C63.0075 112 62.4715 111.808 62.0715 111.424C61.6875 111.024 61.4475 110.496 61.3515 109.84H61.2075C60.9995 110.656 60.5755 111.272 59.9355 111.688C59.2955 112.088 58.5035 112.288 57.5595 112.288C56.2795 112.288 55.2955 111.952 54.6075 111.28C53.9195 110.608 53.5755 109.712 53.5755 108.592C53.5755 107.296 54.0395 106.336 54.9675 105.712C55.8955 105.072 57.2155 104.752 58.9275 104.752H61.0635V103.84C61.0635 103.136 60.8795 102.592 60.5115 102.208C60.1435 101.824 59.5515 101.632 58.7355 101.632C58.0155 101.632 57.4315 101.792 56.9835 102.112C56.5515 102.416 56.1835 102.784 55.8795 103.216L54.0555 101.584C54.5195 100.864 55.1355 100.288 55.9035 99.856C56.6715 99.408 57.6875 99.184 58.9515 99.184C60.6475 99.184 61.9355 99.568 62.8155 100.336C63.6955 101.104 64.1355 102.208 64.1355 103.648V109.552H65.3835V112H63.6795ZM58.5915 110.056C59.2795 110.056 59.8635 109.904 60.3435 109.6C60.8235 109.296 61.0635 108.848 61.0635 108.256V106.6H59.0955C57.4955 106.6 56.6955 107.112 56.6955 108.136V108.544C56.6955 109.056 56.8555 109.44 57.1755 109.696C57.5115 109.936 57.9835 110.056 58.5915 110.056ZM67.8698 99.472H70.9418V109.552H74.5178V99.472H77.5898V109.552H81.1658V99.472H84.2378V112H67.8698V99.472ZM92.8556 112.288C91.9276 112.288 91.0956 112.136 90.3596 111.832C89.6396 111.512 89.0236 111.072 88.5116 110.512C88.0156 109.936 87.6316 109.248 87.3596 108.448C87.0876 107.632 86.9516 106.72 86.9516 105.712C86.9516 104.72 87.0796 103.824 87.3356 103.024C87.6076 102.224 87.9916 101.544 88.4876 100.984C88.9836 100.408 89.5916 99.968 90.3116 99.664C91.0316 99.344 91.8476 99.184 92.7596 99.184C93.7356 99.184 94.5836 99.352 95.3036 99.688C96.0236 100.024 96.6156 100.48 97.0796 101.056C97.5436 101.632 97.8876 102.304 98.1116 103.072C98.3516 103.824 98.4716 104.632 98.4716 105.496V106.504H90.1436V106.816C90.1436 107.728 90.3996 108.464 90.9116 109.024C91.4236 109.568 92.1836 109.84 93.1916 109.84C93.9596 109.84 94.5836 109.68 95.0636 109.36C95.5596 109.04 95.9996 108.632 96.3836 108.136L98.0396 109.984C97.5276 110.704 96.8236 111.272 95.9276 111.688C95.0476 112.088 94.0236 112.288 92.8556 112.288ZM92.8076 101.488C91.9916 101.488 91.3436 101.76 90.8636 102.304C90.3836 102.848 90.1436 103.552 90.1436 104.416V104.608H95.2796V104.392C95.2796 103.528 95.0636 102.832 94.6316 102.304C94.2156 101.76 93.6076 101.488 92.8076 101.488ZM101.174 99.472H104.174V105.064L103.91 107.992H104.006L105.47 105.328L109.382 99.472H112.142V112H109.142V106.408L109.406 103.456H109.31L107.846 106.144L103.934 112H101.174V99.472ZM106.67 97.984C105.662 97.984 104.854 97.776 104.246 97.36C103.638 96.928 103.158 96.32 102.806 95.536L102.302 94.408L104.75 93.448L105.542 95.752C105.67 95.8 105.838 95.84 106.046 95.872C106.254 95.888 106.462 95.896 106.67 95.896C106.878 95.896 107.086 95.888 107.294 95.872C107.502 95.84 107.67 95.8 107.798 95.752L108.59 93.448L111.038 94.408L110.534 95.536C110.182 96.32 109.702 96.928 109.094 97.36C108.486 97.776 107.678 97.984 106.67 97.984ZM40.776 124.472H43.848V129.392H45.864L47.76 126.104C48.112 125.496 48.472 125.072 48.84 124.832C49.208 124.592 49.696 124.472 50.304 124.472H51.672V126.92H50.328L49.008 129.224C48.784 129.64 48.568 129.936 48.36 130.112C48.152 130.272 47.904 130.392 47.616 130.472V130.592C47.904 130.656 48.16 130.768 48.384 130.928C48.624 131.088 48.856 131.368 49.08 131.768L50.64 134.552H51.96V137H50.4C49.792 137 49.288 136.872 48.888 136.616C48.504 136.36 48.136 135.92 47.784 135.296L45.864 131.816H43.848V137H40.776V124.472ZM59.3378 137.288C58.4418 137.288 57.6338 137.136 56.9138 136.832C56.2098 136.528 55.6018 136.088 55.0898 135.512C54.5938 134.936 54.2098 134.248 53.9378 133.448C53.6658 132.632 53.5298 131.72 53.5298 130.712C53.5298 129.704 53.6658 128.8 53.9378 128C54.2098 127.2 54.5938 126.52 55.0898 125.96C55.6018 125.384 56.2098 124.944 56.9138 124.64C57.6338 124.336 58.4418 124.184 59.3378 124.184C60.2338 124.184 61.0418 124.336 61.7618 124.64C62.4818 124.944 63.0898 125.384 63.5858 125.96C64.0978 126.52 64.4898 127.2 64.7618 128C65.0338 128.8 65.1698 129.704 65.1698 130.712C65.1698 131.72 65.0338 132.632 64.7618 133.448C64.4898 134.248 64.0978 134.936 63.5858 135.512C63.0898 136.088 62.4818 136.528 61.7618 136.832C61.0418 137.136 60.2338 137.288 59.3378 137.288ZM59.3378 134.816C60.1538 134.816 60.7938 134.568 61.2578 134.072C61.7218 133.576 61.9538 132.848 61.9538 131.888V129.56C61.9538 128.616 61.7218 127.896 61.2578 127.4C60.7938 126.904 60.1538 126.656 59.3378 126.656C58.5378 126.656 57.9058 126.904 57.4418 127.4C56.9778 127.896 56.7458 128.616 56.7458 129.56V131.888C56.7458 132.848 56.9778 133.576 57.4418 134.072C57.9058 134.568 58.5378 134.816 59.3378 134.816ZM67.8932 124.472H71.4212L74.7332 129.992H74.8292L78.0932 124.472H81.5252V137H78.5492V128.264H78.4532L77.5892 129.896L74.7092 134.648L71.8292 129.896L70.9652 128.264H70.8692V137H67.8932V124.472ZM85.0729 124.472H88.1449V129.392H92.9689V124.472H96.0409V137H92.9689V131.84H88.1449V137H85.0729V124.472ZM108.82 137C108.148 137 107.612 136.808 107.212 136.424C106.828 136.024 106.588 135.496 106.492 134.84H106.348C106.14 135.656 105.716 136.272 105.076 136.688C104.436 137.088 103.644 137.288 102.7 137.288C101.42 137.288 100.436 136.952 99.7481 136.28C99.0601 135.608 98.7161 134.712 98.7161 133.592C98.7161 132.296 99.1801 131.336 100.108 130.712C101.036 130.072 102.356 129.752 104.068 129.752H106.204V128.84C106.204 128.136 106.02 127.592 105.652 127.208C105.284 126.824 104.692 126.632 103.876 126.632C103.156 126.632 102.572 126.792 102.124 127.112C101.692 127.416 101.324 127.784 101.02 128.216L99.1961 126.584C99.6601 125.864 100.276 125.288 101.044 124.856C101.812 124.408 102.828 124.184 104.092 124.184C105.788 124.184 107.076 124.568 107.956 125.336C108.836 126.104 109.276 127.208 109.276 128.648V134.552H110.524V137H108.82ZM103.732 135.056C104.42 135.056 105.004 134.904 105.484 134.6C105.964 134.296 106.204 133.848 106.204 133.256V131.6H104.236C102.636 131.6 101.836 132.112 101.836 133.136V133.544C101.836 134.056 101.996 134.44 102.316 134.696C102.652 134.936 103.124 135.056 103.732 135.056ZM115.109 126.92H111.293V124.472H121.997V126.92H118.181V137H115.109V126.92ZM124.26 124.472H127.332V128.432H130.452C131.06 128.432 131.62 128.528 132.132 128.72C132.66 128.912 133.108 129.192 133.476 129.56C133.86 129.912 134.156 130.352 134.364 130.88C134.588 131.408 134.7 132.016 134.7 132.704C134.7 133.392 134.596 134.008 134.388 134.552C134.18 135.08 133.884 135.528 133.5 135.896C133.132 136.248 132.684 136.52 132.156 136.712C131.644 136.904 131.076 137 130.452 137H124.26V124.472ZM129.828 134.72C130.372 134.72 130.796 134.592 131.1 134.336C131.42 134.08 131.58 133.696 131.58 133.184V132.248C131.58 131.736 131.42 131.352 131.1 131.096C130.796 130.84 130.372 130.712 129.828 130.712H127.332V134.72H129.828ZM136.452 124.472H139.524V137H136.452V124.472Z" fill="white"/>
<path d="M91.104 245H79.488V242.072L84.744 237.464C85.64 236.68 86.296 235.976 86.712 235.352C87.128 234.712 87.336 234.024 87.336 233.288V232.976C87.336 232.24 87.096 231.68 86.616 231.296C86.136 230.896 85.552 230.696 84.864 230.696C84 230.696 83.344 230.944 82.896 231.44C82.448 231.92 82.128 232.504 81.936 233.192L79.2 232.136C79.376 231.576 79.624 231.048 79.944 230.552C80.264 230.04 80.664 229.592 81.144 229.208C81.64 228.824 82.216 228.52 82.872 228.296C83.528 228.072 84.28 227.96 85.128 227.96C86.008 227.96 86.792 228.088 87.48 228.344C88.168 228.584 88.744 228.928 89.208 229.376C89.688 229.824 90.048 230.352 90.288 230.96C90.544 231.568 90.672 232.232 90.672 232.952C90.672 233.656 90.56 234.296 90.336 234.872C90.112 235.448 89.808 236 89.424 236.528C89.04 237.04 88.592 237.536 88.08 238.016C87.568 238.48 87.024 238.952 86.448 239.432L82.92 242.336H91.104V245ZM99.5906 245.288C98.6146 245.288 97.7426 245.168 96.9746 244.928C96.2226 244.672 95.5826 244.328 95.0546 243.896C94.5426 243.464 94.1506 242.952 93.8786 242.36C93.6066 241.768 93.4706 241.12 93.4706 240.416C93.4706 239.328 93.7666 238.448 94.3586 237.776C94.9666 237.088 95.7746 236.608 96.7826 236.336V236.144C95.9506 235.84 95.2706 235.368 94.7426 234.728C94.2306 234.088 93.9746 233.28 93.9746 232.304C93.9746 231.664 94.0946 231.08 94.3346 230.552C94.5906 230.024 94.9586 229.568 95.4386 229.184C95.9186 228.8 96.5026 228.504 97.1906 228.296C97.8946 228.072 98.6946 227.96 99.5906 227.96C100.487 227.96 101.279 228.072 101.967 228.296C102.671 228.504 103.263 228.8 103.743 229.184C104.223 229.568 104.583 230.024 104.823 230.552C105.079 231.08 105.207 231.664 105.207 232.304C105.207 233.28 104.943 234.088 104.415 234.728C103.903 235.368 103.231 235.84 102.399 236.144V236.336C103.407 236.608 104.207 237.088 104.799 237.776C105.407 238.448 105.711 239.328 105.711 240.416C105.711 241.12 105.575 241.768 105.303 242.36C105.031 242.952 104.631 243.464 104.103 243.896C103.591 244.328 102.951 244.672 102.183 244.928C101.431 245.168 100.567 245.288 99.5906 245.288ZM99.5906 242.816C100.503 242.816 101.199 242.608 101.679 242.192C102.175 241.776 102.423 241.192 102.423 240.44V239.936C102.423 239.184 102.175 238.6 101.679 238.184C101.199 237.768 100.503 237.56 99.5906 237.56C98.6786 237.56 97.9746 237.768 97.4786 238.184C96.9986 238.6 96.7586 239.184 96.7586 239.936V240.44C96.7586 241.192 96.9986 241.776 97.4786 242.192C97.9746 242.608 98.6786 242.816 99.5906 242.816ZM99.5906 235.208C100.439 235.208 101.087 235.016 101.535 234.632C101.983 234.248 102.207 233.704 102.207 233V232.616C102.207 231.928 101.983 231.392 101.535 231.008C101.087 230.624 100.439 230.432 99.5906 230.432C98.7426 230.432 98.0946 230.624 97.6466 231.008C97.1986 231.392 96.9746 231.928 96.9746 232.616V233C96.9746 233.704 97.1986 234.248 97.6466 234.632C98.0946 235.016 98.7426 235.208 99.5906 235.208ZM119.653 245.288C118.581 245.288 117.653 245.096 116.869 244.712C116.085 244.312 115.437 243.744 114.925 243.008C114.413 242.272 114.029 241.368 113.773 240.296C113.533 239.224 113.413 238 113.413 236.624C113.413 235.264 113.533 234.048 113.773 232.976C114.029 231.888 114.413 230.976 114.925 230.24C115.437 229.504 116.085 228.944 116.869 228.56C117.653 228.16 118.581 227.96 119.653 227.96C121.781 227.96 123.349 228.72 124.357 230.24C125.381 231.76 125.893 233.888 125.893 236.624C125.893 239.36 125.381 241.488 124.357 243.008C123.349 244.528 121.781 245.288 119.653 245.288ZM119.653 242.624C120.725 242.624 121.469 242.224 121.885 241.424C122.317 240.608 122.533 239.512 122.533 238.136V235.112C122.533 233.736 122.317 232.648 121.885 231.848C121.469 231.032 120.725 230.624 119.653 230.624C118.581 230.624 117.829 231.032 117.397 231.848C116.981 232.648 116.773 233.736 116.773 235.112V238.136C116.773 239.512 116.981 240.608 117.397 241.424C117.829 242.224 118.581 242.624 119.653 242.624ZM134.044 245.288C132.972 245.288 132.044 245.096 131.26 244.712C130.476 244.312 129.828 243.744 129.316 243.008C128.804 242.272 128.42 241.368 128.164 240.296C127.924 239.224 127.804 238 127.804 236.624C127.804 235.264 127.924 234.048 128.164 232.976C128.42 231.888 128.804 230.976 129.316 230.24C129.828 229.504 130.476 228.944 131.26 228.56C132.044 228.16 132.972 227.96 134.044 227.96C136.172 227.96 137.74 228.72 138.748 230.24C139.772 231.76 140.284 233.888 140.284 236.624C140.284 239.36 139.772 241.488 138.748 243.008C137.74 244.528 136.172 245.288 134.044 245.288ZM134.044 242.624C135.116 242.624 135.86 242.224 136.276 241.424C136.708 240.608 136.924 239.512 136.924 238.136V235.112C136.924 233.736 136.708 232.648 136.276 231.848C135.86 231.032 135.116 230.624 134.044 230.624C132.972 230.624 132.22 231.032 131.788 231.848C131.372 232.648 131.164 233.736 131.164 235.112V238.136C131.164 239.512 131.372 240.608 131.788 241.424C132.22 242.224 132.972 242.624 134.044 242.624ZM148.434 245.288C147.362 245.288 146.434 245.096 145.65 244.712C144.866 244.312 144.218 243.744 143.706 243.008C143.194 242.272 142.81 241.368 142.554 240.296C142.314 239.224 142.194 238 142.194 236.624C142.194 235.264 142.314 234.048 142.554 232.976C142.81 231.888 143.194 230.976 143.706 230.24C144.218 229.504 144.866 228.944 145.65 228.56C146.434 228.16 147.362 227.96 148.434 227.96C150.562 227.96 152.13 228.72 153.138 230.24C154.162 231.76 154.674 233.888 154.674 236.624C154.674 239.36 154.162 241.488 153.138 243.008C152.13 244.528 150.562 245.288 148.434 245.288ZM148.434 242.624C149.506 242.624 150.25 242.224 150.666 241.424C151.098 240.608 151.314 239.512 151.314 238.136V235.112C151.314 233.736 151.098 232.648 150.666 231.848C150.25 231.032 149.506 230.624 148.434 230.624C147.362 230.624 146.61 231.032 146.178 231.848C145.762 232.648 145.554 233.736 145.554 235.112V238.136C145.554 239.512 145.762 240.608 146.178 241.424C146.61 242.224 147.362 242.624 148.434 242.624ZM163.073 232.472H166.145V234.536H166.241C166.465 233.816 166.889 233.248 167.513 232.832C168.137 232.4 168.865 232.184 169.697 232.184C171.297 232.184 172.513 232.752 173.345 233.888C174.193 235.008 174.617 236.616 174.617 238.712C174.617 240.824 174.193 242.448 173.345 243.584C172.513 244.72 171.297 245.288 169.697 245.288C168.865 245.288 168.137 245.072 167.513 244.64C166.905 244.208 166.481 243.632 166.241 242.912H166.145V249.8H163.073V232.472ZM168.713 242.744C169.513 242.744 170.161 242.48 170.657 241.952C171.153 241.424 171.401 240.712 171.401 239.816V237.656C171.401 236.76 171.153 236.048 170.657 235.52C170.161 234.976 169.513 234.704 168.713 234.704C167.977 234.704 167.361 234.888 166.865 235.256C166.385 235.624 166.145 236.112 166.145 236.72V240.704C166.145 241.36 166.385 241.864 166.865 242.216C167.361 242.568 167.977 242.744 168.713 242.744ZM178.889 245.264C178.233 245.264 177.745 245.104 177.425 244.784C177.121 244.448 176.969 244.024 176.969 243.512V243.08C176.969 242.568 177.121 242.144 177.425 241.808C177.745 241.472 178.233 241.304 178.889 241.304C179.561 241.304 180.049 241.472 180.353 241.808C180.657 242.144 180.809 242.568 180.809 243.08V243.512C180.809 244.024 180.657 244.448 180.353 244.784C180.049 245.104 179.561 245.264 178.889 245.264ZM183.876 239.216V236.168H190.74V239.216H183.876Z" fill="#FF3B3D"/>
</g>
<defs>
<filter id="filter0_d" x="-40" y="0" width="350" height="638" filterUnits="userSpaceOnUse" color-interpolation-filters="sRGB">
<feFlood flood-opacity="0" result="BackgroundImageFix"/>
<feColorMatrix in="SourceAlpha" type="matrix" values="0 0 0 0 0 0 0 0 0 0 0 0 0 0 0 0 0 0 127 0" result="hardAlpha"/>
<feOffset dy="40"/>
<feGaussianBlur stdDeviation="20"/>
<feColorMatrix type="matrix" values="0 0 0 0 0.493457 0 0 0 0 0.534313 0 0 0 0 0.679167 0 0 0 0.25 0"/>
<feBlend mode="normal" in2="BackgroundImageFix" result="effect1_dropShadow"/>
<feBlend mode="normal" in="SourceGraphic" in2="effect1_dropShadow" result="shape"/>
</filter>
<radialGradient id="paint0_radial" cx="0" cy="0" r="1" gradientUnits="userSpaceOnUse" gradientTransform="translate(134.5 227.385) rotate(90) scale(40.6154 94.5)">
<stop stop-color="white"/>
<stop offset="1" stop-color="#F7F1F1"/>
</radialGradient>
</defs>
</svg>
